<svg version="1.1" id="Layer_1" xmlns="http://www.w3.org/2000/svg" xmlns:xlink="http://www.w3.org/1999/xlink"
  viewBox="0 0 16 16">
  <title>align</title>
  <g id="enter">
    <polygon points="4,7 4,4 7,4 7,2 4,2 2,2 2,4 2,7 	"/>
    <polygon points="12,9 12,12 9,12 9,14 12,14 14,14 14,12 14,9 	"/>
    <polygon points="9,4 12,4 12,7 14,7 14,4 14,2 12,2 9,2 	"/>
    <polygon points="7,12 4,12 4,9 2,9 2,12 2,14 4,14 7,14 	"/>
  </g>
  <g id="exit">
    <polygon points="5,2 5,5 2,5 2,7 5,7 7,7 7,5 7,2 	"/>
    <polygon points="11,14 11,11 14,11 14,9 11,9 9,9 9,11 9,14 	"/>
    <polygon points="14,5 11,5 11,2 9,2 9,5 9,7 11,7 14,7 	"/>
    <polygon points="2,11 5,11 5,14 7,14 7,11 7,9 5,9 2,9 	"/>
  </g>
</svg>
