<?xml version="1.0" encoding="utf-8"?>
<!-- Generator: Adobe Illustrator 20.1.0, SVG Export Plug-In . SVG Version: 6.00 Build 0)  -->
<svg version="1.1" id="Layer_1" xmlns="http://www.w3.org/2000/svg" xmlns:xlink="http://www.w3.org/1999/xlink" x="0px" y="0px"
	 viewBox="0 0 16 16" style="enable-background:new 0 0 16 16;" xml:space="preserve">
<title>lock</title>
<path id="On" d="M7.8,4L6,12H3.5L1.8,4h2c0.5,3,0.8,5,1,7c0.2-2,0.5-4,1-7H7.8z M6.8,16H6L9.2,0H10L6.8,16z M8.2,12L10,4h2.5l1.8,8
	h-2c-0.5-3-0.8-5-1-7c-0.2,2-0.5,4-1,7H8.2z M9.8,10.5v-2h3v2H9.8z"/>
<path id="Off" d="M6.5,4l-1.8,8H2.2L0.5,4h2c0.5,3,0.8,5,1,7c0.2-2,0.5-4,1-7H6.5z M6.8,16H6L9.2,0H10L6.8,16z M9.5,12l1.8-8h2.5
	l1.8,8h-2c-0.5-3-0.8-5-1-7c-0.2,2-0.5,4-1,7H9.5z M11,10.5v-2h3v2H11z"/>
</svg>
