<?xml version="1.0" encoding="utf-8"?>
<!-- Generator: Adobe Illustrator 20.1.0, SVG Export Plug-In . SVG Version: 6.00 Build 0)  -->
<svg version="1.1" id="Layer_1" xmlns="http://www.w3.org/2000/svg" xmlns:xlink="http://www.w3.org/1999/xlink" x="0px" y="0px"
	 viewBox="0 0 16 16" style="enable-background:new 0 0 16 16;" xml:space="preserve">
<title>lock</title>
<path id="On" d="M6.2,13h1.2l-0.8,3H5.5L6.2,13z M9.8,3H8.5l0.8-3h1.2L9.8,3z M7.8,12l1.8-8h3l1.8,8H12c-0.2-1.5-0.5-3-0.8-6.5h-0.5
	c-0.2,3.5-0.5,5-0.8,6.5H7.8z M8.2,4l-1.8,8h-3L1.8,4H4c0.2,1.5,0.5,3,0.8,6.5h0.5C5.5,7,5.8,5.5,6,4H8.2z M9.5,10.5v-2h3v2H9.5z"/>
<path id="Off" d="M9.2,12L11,4h3l1.8,8h-2.2c-0.2-1.5-0.5-3-0.8-6.5h-0.5c-0.2,3.5-0.5,5-0.8,6.5H9.2z M11,10.5v-2h3v2H11z M10.5,0
	L6.8,16H5.5L9.2,0H10.5z M6.8,4L5,12H2L0.2,4h2.2C2.8,5.5,3,7,3.2,10.5h0.5C4,7,4.2,5.5,4.5,4H6.8z"/>
</svg>
