<?xml version="1.0" encoding="utf-8"?>
<!-- Generator: Adobe Illustrator 20.1.0, SVG Export Plug-In . SVG Version: 6.00 Build 0)  -->
<svg version="1.1" id="Layer_1" xmlns="http://www.w3.org/2000/svg" xmlns:xlink="http://www.w3.org/1999/xlink" x="0px" y="0px"
	 viewBox="0 0 16 16" style="enable-background:new 0 0 16 16;" xml:space="preserve">
<style type="text/css">
	.st0{display:none;}
	.st1{display:inline;}
</style>
<title>lock</title>
<g id="locked" class="st0">
	<g class="st1">
		<path d="M12,8h-2V5.5c0-1.4-0.6-2-2-2s-2,0.6-2,2V8H4V5.5c0-2.5,1.5-4,4-4s4,1.5,4,4V8z"/>
	</g>
	<path class="st1" d="M2,7v7h12V7H2z M8,13H3v-1h5V13z M8,11H3v-1h5V11z M8,9H3V8h5V9z"/>
</g>
<g id="unlocked">
	<path d="M12,8h-2l0-4c0-1.4-0.6-2-2-2S6,2.6,6,4v0.5H4V4c0-2.5,1.5-4,4-4s4,1.5,4,4L12,8z"/>
	<path d="M2,7v7h12V7H2z M8,13H3v-1h5V13z M8,11H3v-1h5V11z M8,9H3V8h5V9z"/>
</g>
</svg>
