<?xml version="1.0" encoding="utf-8"?>
<!-- Generator: Adobe Illustrator 20.1.0, SVG Export Plug-In . SVG Version: 6.00 Build 0)  -->
<svg version="1.1" id="Layer_1" xmlns="http://www.w3.org/2000/svg" xmlns:xlink="http://www.w3.org/1999/xlink" x="0px" y="0px"
	 viewBox="0 0 16 16" style="enable-background:new 0 0 16 16;" xml:space="preserve">
<title>lock</title>
<path id="Uppercase" d="M1.2,12L3,4h3l1.8,8H5.5C5.2,10.5,5,9,4.8,5.5H4.2C4,9,3.8,10.5,3.5,12H1.2z M3,10.5v-2h3v2H3z M8.2,12L10,4
	h3l1.8,8h-2.2c-0.2-1.5-0.5-3-0.8-6.5h-0.5c-0.2,3.5-0.5,5-0.8,6.5H8.2z M10,10.5v-2h3v2H10z"/>
<path id="None" d="M9,9V7h5v2H9z M2,9V7h5v2H2z"/>
<path id="Lowercase" d="M7.5,12V9.5C7.5,7,6.2,6,4.2,6c-0.8,0-2,0.2-2.8,0.8l0.2,1.5C2.2,8,3,7.8,3.8,7.8c1.2,0,2,0.5,2,1.8v1.2
	C5.8,11.5,6.2,12.5,7.5,12z M14.5,12v-1C14,11,14,10.5,14,9.5C14,7,12.8,6,10.8,6C10,6,8.8,6.2,8,6.8l0.2,1.5c0.5-0.2,1.2-0.5,2-0.5
	c1.2,0,2,0.5,2,1.8v1.2C12.2,11.5,12.8,12.5,14.5,12z M12.8,10.8H13c-0.5-1.8-1.5-2.2-2.8-2.2C8.8,8.5,8,9,8,10.2s0.8,2,2.2,2
	c2,0,2.5-1,2.5-2.8h-0.5c0,1-0.5,1.2-1.5,1.2c-0.5,0-0.8-0.2-0.8-0.5s0.2-0.5,0.8-0.5C11.8,9.8,12.2,10,12.8,10.8z M6.2,10.8h0.2
	C6.2,9,5,8.5,3.8,8.5c-1.5,0-2.2,0.5-2.2,1.8s0.8,2,2.2,2c2,0,2.5-1,2.5-2.8H5.8c0,1-0.5,1.2-1.5,1.2c-0.5,0-0.8-0.2-0.8-0.5
	s0.2-0.5,0.8-0.5C5.2,9.8,5.8,10,6.2,10.8z"/>
<path id="Capitalize" d="M1.2,12L3,4h3l1.8,8H5.5C5.2,10.5,5,9,4.8,5.5H4.2C4,9,3.8,10.5,3.5,12H1.2z M12.8,10.8H13
	c-0.5-1.8-1.5-2.2-2.8-2.2C8.8,8.5,8,9,8,10.2s0.8,2,2.2,2c2,0,2.5-1,2.5-2.8h-0.5c0,1-0.5,1.2-1.5,1.2c-0.5,0-0.8-0.2-0.8-0.5
	s0.2-0.5,0.8-0.5C11.8,9.8,12.2,10,12.8,10.8z M14.5,12v-1C14,11,14,10.5,14,9.5C14,7,12.8,6,10.8,6C10,6,8.8,6.2,8,6.8l0.2,1.5
	c0.5-0.2,1.2-0.5,2-0.5c1.2,0,2,0.5,2,1.8v1.2C12.2,11.5,12.8,12.5,14.5,12z M3,10.5v-2h3v2H3z"/>
</svg>
