<?xml version="1.0" encoding="utf-8"?>
<!-- Generator: Adobe Illustrator 20.1.0, SVG Export Plug-In . SVG Version: 6.00 Build 0)  -->
<svg version="1.1" id="Layer_1" xmlns="http://www.w3.org/2000/svg" xmlns:xlink="http://www.w3.org/1999/xlink" x="0px" y="0px"
	 viewBox="0 0 16 16" style="enable-background:new 0 0 16 16;" xml:space="preserve">
<style type="text/css">
	.st0{display:none;}
	.st1{display:inline;}
</style>
<title>lock</title>
<g id="None">
	<g>
		<path d="M2.1005,7.9551h4.8721v1.0645H2.1005V7.9551z"/>
	</g>
	<g>
		<path d="M9.0362,7.9551h4.8721v1.0645H9.0362V7.9551z"/>
	</g>
</g>
<g id="Lowercase" class="st0">
	<g class="st1">
		<path d="M4.7261,8.0479c0.2593-0.0322,0.4443-0.0732,0.5557-0.1221C5.4819,7.8413,5.582,7.7095,5.582,7.5303
			c0-0.2183-0.0767-0.3687-0.23-0.4517c-0.1538-0.083-0.3789-0.1245-0.6758-0.1245c-0.3335,0-0.5693,0.0815-0.708,0.2441
			C3.8696,7.3188,3.8037,7.4814,3.7705,7.6865H2.4277C2.457,7.2212,2.5879,6.8384,2.8198,6.5391
			c0.3696-0.4688,1.0039-0.7031,1.9028-0.7031c0.5854,0,1.105,0.1157,1.5596,0.3467s0.6816,0.6675,0.6816,1.3086v2.4414
			c0,0.1689,0.0034,0.374,0.0098,0.6152c0.0098,0.1826,0.0376,0.3057,0.083,0.3711s0.1138,0.1191,0.2051,0.1611v0.2051H5.748
			c-0.0425-0.1074-0.0718-0.208-0.0879-0.3027s-0.0293-0.2021-0.0391-0.3223c-0.1934,0.208-0.416,0.3857-0.668,0.5322
			c-0.3013,0.1729-0.6416,0.2588-1.0215,0.2588c-0.4849,0-0.8848-0.1377-1.2007-0.4121c-0.3164-0.2754-0.4741-0.665-0.4741-1.1699
			c0-0.6543,0.2539-1.1279,0.7622-1.4209c0.2788-0.1592,0.689-0.2734,1.23-0.3418L4.7261,8.0479z M5.5771,8.6973
			c-0.0894,0.0557-0.1792,0.0996-0.27,0.1348C5.2163,8.8652,5.0918,8.8975,4.9336,8.9268L4.6167,8.9854
			C4.3198,9.0371,4.1064,9.1006,3.9771,9.1758C3.7578,9.3027,3.6484,9.5,3.6484,9.7666c0,0.2373,0.0669,0.4092,0.2007,0.5146
			c0.1338,0.1064,0.2969,0.1592,0.4883,0.1592c0.3042,0,0.5845-0.0879,0.8403-0.2637c0.2563-0.1758,0.3896-0.4961,0.3994-0.9619
			V8.6973z"/>
	</g>
	<g class="st1">
		<path d="M11.2266,8.0479c0.2588-0.0322,0.4443-0.0732,0.5557-0.1221c0.2002-0.0845,0.2998-0.2163,0.2998-0.3955
			c0-0.2183-0.0762-0.3687-0.2295-0.4517c-0.1543-0.083-0.3789-0.1245-0.6758-0.1245c-0.334,0-0.5693,0.0815-0.708,0.2441
			c-0.0986,0.1206-0.165,0.2832-0.1982,0.4883H8.9277C8.957,7.2212,9.0879,6.8384,9.3203,6.5391
			c0.3691-0.4688,1.0039-0.7031,1.9023-0.7031c0.5859,0,1.1055,0.1157,1.5596,0.3467c0.4551,0.231,0.6816,0.6675,0.6816,1.3086
			v2.4414c0,0.1689,0.0039,0.374,0.0098,0.6152c0.0098,0.1826,0.0381,0.3057,0.083,0.3711
			c0.0459,0.0654,0.1143,0.1191,0.2051,0.1611v0.2051H12.248c-0.042-0.1074-0.0713-0.208-0.0879-0.3027
			c-0.0156-0.0947-0.0293-0.2021-0.0391-0.3223c-0.1934,0.208-0.416,0.3857-0.668,0.5322
			c-0.3008,0.1729-0.6416,0.2588-1.0215,0.2588c-0.4844,0-0.8848-0.1377-1.2002-0.4121c-0.3164-0.2754-0.4746-0.665-0.4746-1.1699
			c0-0.6543,0.2539-1.1279,0.7627-1.4209c0.2783-0.1592,0.6885-0.2734,1.2295-0.3418L11.2266,8.0479z M12.0771,8.6973
			c-0.0889,0.0557-0.1787,0.0996-0.2695,0.1348c-0.0908,0.0332-0.2158,0.0654-0.374,0.0947l-0.3164,0.0586
			c-0.2969,0.0518-0.5107,0.1152-0.6396,0.1904c-0.2197,0.127-0.3291,0.3242-0.3291,0.5908c0,0.2373,0.0674,0.4092,0.2012,0.5146
			c0.1338,0.1064,0.2969,0.1592,0.4883,0.1592c0.3037,0,0.584-0.0879,0.8398-0.2637c0.2568-0.1758,0.3896-0.4961,0.3994-0.9619
			V8.6973z"/>
	</g>
</g>
<g id="Capitalize" class="st0">
	<g class="st1">
		<path d="M3.8921,4.0879h1.7017l2.5469,7.1973H6.5093L6.0342,9.8057H3.3838L2.896,11.2852H1.3228L3.8921,4.0879z M3.793,8.5654
			h1.8433l-0.9092-2.832L3.793,8.5654z"/>
	</g>
	<g class="st1">
		<path d="M11.4766,8.0479c0.2588-0.0322,0.4443-0.0732,0.5557-0.1221c0.2002-0.0845,0.2998-0.2163,0.2998-0.3955
			c0-0.2183-0.0762-0.3687-0.2295-0.4517c-0.1543-0.083-0.3789-0.1245-0.6758-0.1245c-0.334,0-0.5693,0.0815-0.708,0.2441
			c-0.0986,0.1206-0.165,0.2832-0.1982,0.4883H9.1777C9.207,7.2212,9.3379,6.8384,9.5703,6.5391
			c0.3691-0.4688,1.0039-0.7031,1.9023-0.7031c0.5859,0,1.1055,0.1157,1.5596,0.3467c0.4551,0.231,0.6816,0.6675,0.6816,1.3086
			v2.4414c0,0.1689,0.0039,0.374,0.0098,0.6152c0.0098,0.1826,0.0381,0.3057,0.083,0.3711
			c0.0459,0.0654,0.1143,0.1191,0.2051,0.1611v0.2051H12.498c-0.042-0.1074-0.0713-0.208-0.0879-0.3027
			c-0.0156-0.0947-0.0293-0.2021-0.0391-0.3223c-0.1934,0.208-0.416,0.3857-0.668,0.5322
			c-0.3008,0.1729-0.6416,0.2588-1.0215,0.2588c-0.4844,0-0.8848-0.1377-1.2002-0.4121c-0.3164-0.2754-0.4746-0.665-0.4746-1.1699
			c0-0.6543,0.2539-1.1279,0.7627-1.4209c0.2783-0.1592,0.6885-0.2734,1.2295-0.3418L11.4766,8.0479z M12.3271,8.6973
			c-0.0889,0.0557-0.1787,0.0996-0.2695,0.1348c-0.0908,0.0332-0.2158,0.0654-0.374,0.0947l-0.3164,0.0586
			c-0.2969,0.0518-0.5107,0.1152-0.6396,0.1904c-0.2197,0.127-0.3291,0.3242-0.3291,0.5908c0,0.2373,0.0674,0.4092,0.2012,0.5146
			c0.1338,0.1064,0.2969,0.1592,0.4883,0.1592c0.3037,0,0.584-0.0879,0.8398-0.2637c0.2568-0.1758,0.3896-0.4961,0.3994-0.9619
			V8.6973z"/>
	</g>
</g>
<g id="Uppercase" class="st0">
	<g class="st1">
		<path d="M3.8921,4.0879h1.7017l2.5469,7.1973H6.5093L6.0342,9.8057H3.3838L2.896,11.2852H1.3228L3.8921,4.0879z M3.793,8.5654
			h1.8433l-0.9092-2.832L3.793,8.5654z"/>
	</g>
	<g class="st1">
		<path d="M10.8926,4.0879h1.7012l2.5469,7.1973h-1.6309l-0.4756-1.4795h-2.6504l-0.4873,1.4795H8.3232L10.8926,4.0879z
			 M10.793,8.5654h1.8438l-0.9092-2.832L10.793,8.5654z"/>
	</g>
</g>
</svg>
