<?xml version="1.0" encoding="utf-8"?>
<!-- Generator: Adobe Illustrator 20.1.0, SVG Export Plug-In . SVG Version: 6.00 Build 0)  -->
<svg version="1.1" id="Layer_1" xmlns="http://www.w3.org/2000/svg" xmlns:xlink="http://www.w3.org/1999/xlink" x="0px" y="0px"
	 viewBox="0 0 16 16" style="enable-background:new 0 0 16 16;" xml:space="preserve">
<style type="text/css">
	.st0{display:none;}
	.st1{display:inline;}
</style>
<g id="vertical-lr">
	<g>
		<g>
			<path d="M9.3,4.5l-0.6,0c-0.2,0-0.3,0-0.4-0.1c-0.1,0-0.1-0.1-0.1-0.2c0-0.1,0.1-0.2,0.3-0.3C8.8,3.9,9,3.8,9.2,3.8h1
				c0.1,0,0.1,0,0.1,0c0-0.1-0.1-0.2-0.2-0.4C10,3.2,10,3.1,10,3c0-0.1,0-0.1,0.2-0.1c0.1,0,0.3,0.1,0.5,0.3
				c0.2,0.2,0.4,0.4,0.4,0.5c0.1,0.1,0.1,0.2,0.1,0.3s0,0.2-0.1,0.3c-0.1,0.1-0.2,0.1-0.4,0.1l-0.5,0v0.9c-0.3,0-0.5,0-0.7,0.1
				S9.2,5.5,9.2,5.5s0.2,0.1,0.5,0.1c0.3,0.1,0.6,0.2,0.9,0.2c0.3,0.1,0.7,0.2,1.1,0.5c0.3,0.1,0.5,0.2,0.6,0.2s0.3,0,0.4,0
				c0.1,0,0.2,0,0.3,0c0,0,0.1,0,0.1,0.1s0.1,0.1,0.1,0.1s0,0.1-0.1,0.2S12.9,7,12.7,7.1l-0.6,0.3c-0.2,0.1-0.3,0.2-0.4,0.2
				s-0.2,0-0.3-0.1C11,7,10.4,6.7,9.9,6.5s-1-0.3-1.4-0.3C8.1,6.2,7.8,6.1,7.8,6c0-0.1,0-0.2,0.1-0.3c0.1-0.1,0.3-0.3,0.5-0.4
				C8.7,5.1,9,5,9.3,4.9V4.5z"/>
		</g>
	</g>
	<g>
		<g>
			<rect x="3" y="2" width="1" height="10.9"/>
		</g>
		<g>
			<g>
				<polygon points="5.2,10.9 3.5,12.6 1.8,10.9 1.8,12.3 3.5,14 5.2,12.3 				"/>
			</g>
		</g>
	</g>
	<g>
		<g>
			<rect x="8" y="12" width="4.4" height="1"/>
		</g>
		<g>
			<g>
				<polygon points="10.4,10.8 12.1,12.5 10.4,14.2 11.8,14.2 13.5,12.5 11.8,10.8 				"/>
			</g>
		</g>
	</g>
</g>
<g id="vertical-rl" class="st0">
	<g class="st1">
		<g>
			<rect x="12" y="2" width="1" height="10.9"/>
		</g>
		<g>
			<g>
				<polygon points="14.2,10.9 12.5,12.6 10.8,10.9 10.8,12.3 12.5,14 14.2,12.3 				"/>
			</g>
		</g>
	</g>
	<g class="st1">
		<g>
			<rect x="3.6" y="12" width="4.4" height="1"/>
		</g>
		<g>
			<g>
				<polygon points="5.6,14.2 3.9,12.5 5.6,10.8 4.2,10.8 2.5,12.5 4.2,14.2 				"/>
			</g>
		</g>
	</g>
	<g class="st1">
		<g>
			<path d="M7.2,4.2c0,0.1-0.1,0.2-0.1,0.4C7.4,4.7,7.5,4.8,7.8,5c0.4,0.3,0.6,0.8,0.6,1.3c0,0.8-0.5,1.5-1.3,1.9
				C6.6,8.3,6.3,8.4,5.6,8.5C5.5,8.1,5.4,7.8,5.2,7.6C4.7,8,4.1,8.3,3.6,8.3c-0.8,0-1.4-0.6-1.4-1.4c0-0.6,0.2-1.2,0.7-1.6
				c0.3-0.3,0.5-0.5,1-0.6c0-0.2,0-0.3,0-0.6C3.6,4,3.6,4,3.1,4C3,4,2.9,4,2.8,4C2.7,4,2.6,4,2.5,4l0-1.1C2.9,3,3.3,3,3.8,3h0L4,3
				c0-0.1,0-0.1,0-0.3c0-0.1,0-0.1,0-0.2c0-0.1,0-0.2,0-0.3l1.2,0C5.1,2.4,5.1,2.5,5.1,3c1.1-0.1,2.1-0.2,2.6-0.4l0,1.1
				c-0.1,0-0.1,0-0.3,0C6.8,3.9,5.7,3.9,5,4C5,4,5,4,5,4.2c0,0,0,0.1,0,0.2c0.3,0,0.4-0.1,0.7-0.1c0.1,0,0.2,0,0.3,0
				C6,4.2,6.1,4.1,6.1,3.9L7.2,4.2z M3.3,6.8c0,0.3,0.1,0.4,0.3,0.4c0.1,0,0.3,0,0.4-0.1C4,6.7,3.9,6.3,3.9,5.8
				C3.5,6.1,3.3,6.4,3.3,6.8z M5,6.3C5.3,6,5.5,5.6,5.7,5.2c-0.1,0-0.1,0-0.1,0c-0.2,0-0.4,0-0.6,0.1C5,5.8,5,6,5,6.3z M6.5,7.1
				c0.4-0.2,0.7-0.6,0.7-0.9c0-0.3-0.1-0.5-0.4-0.7C6.4,6.3,6,6.8,5.5,7.3C5.9,7.3,6.2,7.3,6.5,7.1z"/>
		</g>
	</g>
</g>
<g id="horizontal" class="st0">
	<g class="st1">
		<g>
			<rect x="3.6" y="12" width="8.7" height="1"/>
		</g>
		<g>
			<g>
				<polygon points="10.4,10.8 12.1,12.5 10.4,14.2 11.8,14.2 13.5,12.5 11.8,10.8 				"/>
			</g>
		</g>
		<g>
			<g>
				<polygon points="5.6,10.8 3.9,12.5 5.6,14.2 4.2,14.2 2.5,12.5 4.2,10.8 				"/>
			</g>
		</g>
	</g>
	<g class="st1">
		<g>
			<path d="M4.3,2.2h1.4l2,5.8H6.3L6,6.8H3.8L3.5,8H2.2L4.3,2.2z M4.2,5.8h1.5L4.9,3.6L4.2,5.8z"/>
		</g>
		<g>
			<path d="M10.8,5.4c0.2,0,0.4-0.1,0.4-0.1c0.2-0.1,0.2-0.2,0.2-0.3c0-0.2-0.1-0.3-0.2-0.4c-0.1-0.1-0.3-0.1-0.5-0.1
				c-0.3,0-0.5,0.1-0.6,0.2C10.1,4.8,10,5,10,5.1H8.9c0-0.4,0.1-0.7,0.3-0.9c0.3-0.4,0.8-0.6,1.5-0.6c0.5,0,0.9,0.1,1.2,0.3
				c0.4,0.2,0.5,0.5,0.5,1v2c0,0.1,0,0.3,0,0.5c0,0.1,0,0.2,0.1,0.3s0.1,0.1,0.2,0.1V8h-1.2c0-0.1-0.1-0.2-0.1-0.2s0-0.2,0-0.3
				c-0.2,0.2-0.3,0.3-0.5,0.4c-0.2,0.1-0.5,0.2-0.8,0.2c-0.4,0-0.7-0.1-1-0.3C8.9,7.6,8.8,7.3,8.8,6.9C8.8,6.3,9,6,9.4,5.7
				c0.2-0.1,0.6-0.2,1-0.3L10.8,5.4z M11.5,5.9C11.4,6,11.3,6,11.2,6s-0.2,0.1-0.3,0.1l-0.3,0c-0.2,0-0.4,0.1-0.5,0.2
				C10,6.4,9.9,6.6,9.9,6.8c0,0.2,0.1,0.3,0.2,0.4c0.1,0.1,0.2,0.1,0.4,0.1c0.2,0,0.5-0.1,0.7-0.2s0.3-0.4,0.3-0.8V5.9z"/>
		</g>
	</g>
</g>
</svg>
