<?xml version="1.0" encoding="utf-8"?>
<!-- Generator: Adobe Illustrator 20.1.0, SVG Export Plug-In . SVG Version: 6.00 Build 0)  -->
<svg version="1.1" id="Layer_1" xmlns="http://www.w3.org/2000/svg" xmlns:xlink="http://www.w3.org/1999/xlink" x="0px" y="0px"
	 viewBox="0 0 16 16" style="enable-background:new 0 0 16 16;" xml:space="preserve">
<title>lock</title>
<path id="Off" d="M7,4l-1.8,8h-3L0.5,4h2.2l1,6.8l1-6.8H7z M9,12l1.8-8h3l1.8,8h-2.2l-0.5-2.5H13l-0.8-4.2l-0.8,4.2h0.2L11.2,12H9z
	 M10.8,10.5v-2h3v2H10.8z M10.5,0L6.8,16H5.5L9.2,0H10.5z"/>
<path id="On" d="M8,4l-1.8,8h-3L1.5,4h2.2l1,6.8l1-6.8H8z M8,12l1.8-8h3l1.8,8h-2.2l-0.5-2.5H12l-0.8-4.2l-0.8,4.2h0.2L10.2,12H8z
	 M9.8,10.5v-2h3v2H9.8z M6.2,13h1.2l-0.8,3H5.5L6.2,13z M9.8,3H8.5l0.8-3h1.2L9.8,3z"/>
</svg>
