<?xml version="1.0" encoding="utf-8"?>
<!-- Generator: Adobe Illustrator 21.0.0, SVG Export Plug-In . SVG Version: 6.00 Build 0)  -->
<svg version="1.1" id="Layer_1" xmlns="http://www.w3.org/2000/svg" xmlns:xlink="http://www.w3.org/1999/xlink" x="0px" y="0px"
	 viewBox="0 0 16 16" style="enable-background:new 0 0 16 16;" xml:space="preserve">
<style type="text/css">
	.st0{display:none;}
	.st1{display:inline;}
</style>
<title>lock</title>
<g id="off-horizontal" class="st0">
	<g class="st1">
		<path d="M5.5,4.4H7l-2.5,7.2H3.1L0.7,4.4h1.6l1.6,5.5L5.5,4.4z"/>
		<path d="M11.2,4.4h1.7l2.5,7.2h-1.6l-0.5-1.5h-2.7l-0.5,1.5H8.7L11.2,4.4z M11.1,8.9H13l-0.9-2.8L11.1,8.9z"/>
	</g>
	<g class="st1">
		<rect x="-1.3" y="7.3" transform="matrix(0.3328 -0.943 0.943 0.3328 -2.2522 12.6886)" width="18.2" height="1.3"/>
	</g>
</g>
<g id="on-horizontal" class="st0">
	<g class="st1">
		<path d="M6.5,4.4H8l-2.5,7.2H4.1L1.7,4.4h1.6l1.6,5.5L6.5,4.4z"/>
		<path d="M10.2,4.4h1.7l2.5,7.2h-1.6l-0.5-1.5H9.7l-0.5,1.5H7.7L10.2,4.4z M10.1,8.9H12l-0.9-2.8L10.1,8.9z"/>
	</g>
	<path class="st1" d="M10.3-0.8L8.9,3h1.3l1.2-3.4L10.3-0.8z M4.2,16.3l1.2,0.4L6.7,13H5.4L4.2,16.3z"/>
</g>
<g id="off-vertical" class="st0">
	<g class="st1">
		<path d="M9.7,4.3C9.4,4.6,8.9,4.8,8.3,4.8H7.1v2.1H5.9V1.1h2.5c0.6,0,1,0.1,1.4,0.4c0.3,0.3,0.5,0.8,0.5,1.4
			C10.2,3.6,10.1,4,9.7,4.3z M8.8,2.3C8.7,2.1,8.5,2.1,8.2,2.1H7.1v1.7h1.1c0.3,0,0.5-0.1,0.6-0.2S9,3.2,9,2.9S9,2.4,8.8,2.3z"/>
		<path d="M7.6,12.6v0.1c0,0.4,0.1,0.8,0.1,0.9C7.8,13.9,8,14,8.2,14c0.3,0,0.4-0.1,0.5-0.3c0.1-0.1,0.1-0.3,0.1-0.6v-4H10v4
			c0,0.5-0.1,0.9-0.2,1.2C9.5,14.7,9,15,8.3,15s-1.2-0.2-1.5-0.6c-0.2-0.4-0.4-0.9-0.4-1.6v-0.1H7.6z"/>
	</g>
	<g class="st1">
		<rect x="-1.1" y="7.4" transform="matrix(0.943 -0.3328 0.3328 0.943 -2.2064 3.1184)" width="18.2" height="1.3"/>
	</g>
</g>
<g id="on-vertical">
	<g>
		<path d="M9.7,5.5C9.4,5.8,8.9,5.9,8.3,5.9H7.1V8H5.9V2.3h2.5c0.6,0,1,0.1,1.4,0.4c0.3,0.3,0.5,0.8,0.5,1.4
			C10.2,4.8,10.1,5.2,9.7,5.5z M8.8,3.4C8.7,3.3,8.5,3.3,8.2,3.3H7.1V5h1.1c0.3,0,0.5-0.1,0.6-0.2S9,4.4,9,4.1S9,3.6,8.8,3.4z"/>
		<path d="M7.6,11.5v0.1c0,0.4,0.1,0.8,0.1,0.9c0.1,0.2,0.3,0.3,0.5,0.3c0.3,0,0.4-0.1,0.5-0.3c0.1-0.1,0.1-0.3,0.1-0.6V8H10v4
			c0,0.5-0.1,0.9-0.2,1.2c-0.3,0.5-0.8,0.7-1.5,0.7s-1.2-0.2-1.5-0.6c-0.2-0.4-0.4-0.9-0.4-1.6v-0.1H7.6z"/>
	</g>
	<path d="M16.5,4.4L13,5.6v1.3l3.8-1.4L16.5,4.4z M3,10.4V9.1l-3.7,1.3l0.4,1.2L3,10.4z"/>
</g>
</svg>
