<?xml version="1.0" encoding="utf-8"?>
<!-- Generator: Adobe Illustrator 20.1.0, SVG Export Plug-In . SVG Version: 6.00 Build 0)  -->
<svg version="1.1" id="Layer_1" xmlns="http://www.w3.org/2000/svg" xmlns:xlink="http://www.w3.org/1999/xlink" x="0px" y="0px"
	 viewBox="0 0 16 16" style="enable-background:new 0 0 16 16;" xml:space="preserve">
<title>lock</title>
<g id="Off">
	<g>
		<path d="M5.4561,4.4409h1.5625l-2.4536,7.1968H3.144L0.71,4.4409h1.6064l1.5625,5.4634L5.4561,4.4409z"/>
		<path d="M11.2354,4.4409h1.7021l2.5459,7.1968h-1.6309l-0.4756-1.4795h-2.6504l-0.4873,1.4795H8.666L11.2354,4.4409z
			 M11.1367,8.918h1.8428l-0.9092-2.8315L11.1367,8.918z"/>
	</g>
	<g>
		<rect x="-1.2513" y="7.3109" transform="matrix(0.3328 -0.943 0.943 0.3328 -2.2524 12.6886)" width="18.1841" height="1.2503"/>
	</g>
</g>
<g id="On">
	<g>
		<path d="M6.4561,4.4409h1.5625l-2.4536,7.1968H4.144L1.71,4.4409h1.6064l1.5625,5.4634L6.4561,4.4409z"/>
		<path d="M10.2354,4.4409h1.7021l2.5459,7.1968h-1.6309l-0.4756-1.4795H9.7266l-0.4873,1.4795H7.666L10.2354,4.4409z
			 M10.1367,8.918h1.8428l-0.9092-2.8315L10.1367,8.918z"/>
	</g>
	<path d="M10.2715-0.8472L8.9165,3h1.3257l1.2089-3.4321L10.2715-0.8472z M4.231,16.3037l1.1787,0.416l1.295-3.6766H5.3793
		L4.231,16.3037z"/>
</g>
</svg>
