<?xml version="1.0" encoding="utf-8"?>
<!-- Generator: Adobe Illustrator 20.1.0, SVG Export Plug-In . SVG Version: 6.00 Build 0)  -->
<svg version="1.1" id="Layer_1" xmlns="http://www.w3.org/2000/svg" xmlns:xlink="http://www.w3.org/1999/xlink" x="0px" y="0px"
	 viewBox="0 0 16 16" style="enable-background:new 0 0 16 16;" xml:space="preserve">
<title>lock</title>
<g id="locked">
	<g>
		<path d="M12,8h-2V5.5c0-1.4-0.6-2-2-2s-2,0.6-2,2V8H4V5.5c0-2.5,1.5-4,4-4s4,1.5,4,4V8z"/>
	</g>
	<path d="M2,7v7h12V7H2z M8,13H3V8l5,3V13z"/>
</g>
<g id="unlocked">
	<g>
		<path d="M12,8h-2V4.5c0-1.4-0.6-2-2-2s-2,0.6-2,2V5H4V4.5c0-2.5,1.5-4,4-4s4,1.5,4,4V8z"/>
	</g>
	<path d="M2,7v7h12V7H2z M8,13H3V8l5,3V13z"/>
</g>
</svg>
