<?xml version="1.0" encoding="utf-8"?>
<!-- Generator: Adobe Illustrator 20.1.0, SVG Export Plug-In . SVG Version: 6.00 Build 0)  -->
<svg version="1.1" id="Layer_1" xmlns="http://www.w3.org/2000/svg" xmlns:xlink="http://www.w3.org/1999/xlink" x="0px" y="0px"
	 viewBox="0 0 16 16" style="enable-background:new 0 0 16 16;" xml:space="preserve">
<title>lock</title>
<g id="upright">
	<path d="M9.6426,3.3984C9.6182,3.4863,9.5947,3.5742,9.5781,3.6621c1.1602,0.3198,1.6709,1.1274,1.6709,2.0225
		c0,1.2793-0.959,2.1436-3.0137,2.3994c-0.0645-0.208-0.2637-0.5918-0.416-0.8076c1.4395-0.1602,2.3828-0.6396,2.3828-1.5674
		c0-0.2637-0.0879-0.8877-0.9512-1.1675C8.8984,5.3408,8.3633,6.085,7.7393,6.6201c0.0322,0.1045,0.0723,0.1924,0.1123,0.2725
		L7.0283,7.4199c-0.04-0.0801-0.0801-0.168-0.1123-0.2637C6.5166,7.3799,6.0762,7.5244,5.6289,7.5244
		c-0.7041,0-1.168-0.4482-1.168-1.1914c0-1.1035,0.8477-1.9751,1.9834-2.439C6.4287,3.5503,6.4287,3.1982,6.4287,2.8306
		c-0.6006,0.0161-1.248,0.0317-1.5674,0.0239L4.8135,1.9189c0.3672,0.0083,1.0391,0.0083,1.6309,0.0083
		C6.46,1.583,6.4678,1.1836,6.4844,0.8477l1.2549,0.0957c-0.0156,0.0801-0.0801,0.144-0.2158,0.1602
		C7.5,1.3354,7.4834,1.6392,7.46,1.895c0.8711-0.04,1.9668-0.144,2.8545-0.3359l0.0879,0.9678
		c-0.8799,0.1597-2.0312,0.2397-2.9902,0.272C7.4033,3.0786,7.3955,3.3501,7.3955,3.6143c0.3359-0.0801,0.8242-0.1279,1.1992-0.104
		C8.627,3.3901,8.6514,3.2705,8.6592,3.1504L9.6426,3.3984z M6.6758,6.2764C6.5879,5.8525,6.5322,5.3574,6.4922,4.8135
		c-0.6318,0.312-1.0635,0.7998-1.0635,1.335c0,0.4561,0.3438,0.4404,0.4482,0.4316C6.124,6.5723,6.3965,6.4609,6.6758,6.2764z
		 M8.291,4.3818C8.1797,4.3657,7.7637,4.3975,7.4033,4.4937c0.0244,0.3999,0.0488,0.7676,0.1045,1.0874
		C7.8193,5.2534,8.0918,4.8374,8.291,4.3818z"/>
	<path d="M7.4316,8.7422H8.793L10.8301,14.5H9.5254l-0.3799-1.1836H7.0244L6.6348,14.5H5.376L7.4316,8.7422z M7.3525,12.3242h1.4746
		l-0.7275-2.2656L7.3525,12.3242z"/>
</g>
<g id="mixed">
	<path d="M9.6426,3.3984C9.6182,3.4863,9.5947,3.5742,9.5781,3.6621c1.1602,0.3198,1.6709,1.1274,1.6709,2.0225
		c0,1.2793-0.959,2.1436-3.0137,2.3994c-0.0645-0.208-0.2637-0.5918-0.416-0.8076c1.4395-0.1602,2.3828-0.6396,2.3828-1.5674
		c0-0.2637-0.0879-0.8877-0.9512-1.1675C8.8984,5.3408,8.3633,6.085,7.7393,6.6201c0.0322,0.1045,0.0723,0.1924,0.1123,0.2725
		L7.0283,7.4199c-0.04-0.0801-0.0801-0.168-0.1123-0.2637C6.5166,7.3799,6.0762,7.5244,5.6289,7.5244
		c-0.7041,0-1.168-0.4482-1.168-1.1914c0-1.1035,0.8477-1.9751,1.9834-2.439C6.4287,3.5503,6.4287,3.1982,6.4287,2.8306
		c-0.6006,0.0161-1.248,0.0317-1.5674,0.0239L4.8135,1.9189c0.3672,0.0083,1.0391,0.0083,1.6309,0.0083
		C6.46,1.583,6.4678,1.1836,6.4844,0.8477l1.2549,0.0957c-0.0156,0.0801-0.0801,0.144-0.2158,0.1602
		C7.5,1.3354,7.4834,1.6392,7.46,1.895c0.8711-0.04,1.9668-0.144,2.8545-0.3359l0.0879,0.9678
		c-0.8799,0.1597-2.0312,0.2397-2.9902,0.272C7.4033,3.0786,7.3955,3.3501,7.3955,3.6143c0.3359-0.0801,0.8242-0.1279,1.1992-0.104
		C8.627,3.3901,8.6514,3.2705,8.6592,3.1504L9.6426,3.3984z M6.6758,6.2764C6.5879,5.8525,6.5322,5.3574,6.4922,4.8135
		c-0.6318,0.312-1.0635,0.7998-1.0635,1.335c0,0.4561,0.3438,0.4404,0.4482,0.4316C6.124,6.5723,6.3965,6.4609,6.6758,6.2764z
		 M8.291,4.3818C8.1797,4.3657,7.7637,4.3975,7.4033,4.4937c0.0244,0.3999,0.0488,0.7676,0.1045,1.0874
		C7.8193,5.2534,8.0918,4.8374,8.291,4.3818z"/>
	<path d="M10.3389,10.5303v1.3613l-5.7578,2.0371V12.624l1.1836-0.3799V10.124L4.5811,9.7334V8.4746L10.3389,10.5303z
		 M6.7568,10.4512v1.4746l2.2656-0.7275L6.7568,10.4512z"/>
</g>
<g id="sideways">
	<path d="M9.1016,6.9824C9.0137,6.958,8.9258,6.9346,8.8379,6.918C8.5176,8.0781,7.7104,8.5898,6.8154,8.5898
		c-1.2793,0-2.1436-0.96-2.3994-3.0146c0.208-0.0645,0.5918-0.2637,0.8076-0.416C5.3838,6.5986,5.8633,7.542,6.791,7.542
		c0.2637,0,0.8877-0.0879,1.1675-0.9512C7.1592,6.2383,6.415,5.7031,5.8799,5.0791C5.7754,5.1113,5.6875,5.1514,5.6074,5.1914
		L5.0801,4.3682c0.0801-0.04,0.168-0.0801,0.2637-0.1123C5.1201,3.8564,4.9756,3.416,4.9756,2.9688
		c0-0.7041,0.4482-1.168,1.1914-1.168c1.1035,0,1.9756,0.8477,2.4385,1.9834c0.3438-0.0156,0.6963-0.0156,1.0645-0.0156
		C9.6533,3.168,9.6377,2.5205,9.6455,2.2012l0.9355-0.0479c-0.0088,0.3672-0.0088,1.0391-0.0088,1.6309
		c0.3447,0.0156,0.7441,0.0234,1.0801,0.04l-0.0957,1.2549c-0.0801-0.0156-0.1445-0.0801-0.1602-0.2158
		c-0.2324-0.0234-0.5352-0.04-0.791-0.0635c0.0391,0.8711,0.1436,1.9668,0.3359,2.8545L9.9727,7.7422
		C9.8135,6.8623,9.7334,5.7109,9.7012,4.752C9.4219,4.7432,9.1504,4.7354,8.8857,4.7354c0.0801,0.3359,0.1279,0.8242,0.1045,1.1992
		C9.1094,5.9668,9.2295,5.9912,9.3496,5.999L9.1016,6.9824z M6.2236,4.0156C6.6475,3.9277,7.1426,3.8721,7.6865,3.832
		c-0.312-0.6318-0.7998-1.0635-1.335-1.0635c-0.4561,0-0.4404,0.3438-0.4316,0.4482C5.9277,3.4639,6.0391,3.7363,6.2236,4.0156z
		 M8.1182,5.6309c0.0166-0.1113-0.0156-0.5273-0.1123-0.8877C7.6064,4.7676,7.2388,4.792,6.9189,4.8477
		C7.2466,5.1592,7.6626,5.4316,8.1182,5.6309z"/>
	<path d="M10.7578,11.2324v1.3613L5,14.6309v-1.3047l1.1836-0.3789v-2.1211L5,10.4365V9.1777L10.7578,11.2324z M7.1758,11.1543
		v1.4746l2.2656-0.7285L7.1758,11.1543z"/>
</g>
</svg>
