<?xml version="1.0" encoding="utf-8"?>
<!-- Generator: Adobe Illustrator 20.1.0, SVG Export Plug-In . SVG Version: 6.00 Build 0)  -->
<svg version="1.1" id="Layer_1" xmlns="http://www.w3.org/2000/svg" xmlns:xlink="http://www.w3.org/1999/xlink" x="0px" y="0px"
	 viewBox="0 0 16 16" style="enable-background:new 0 0 16 16;" xml:space="preserve">
<style type="text/css">
	.st0{display:none;}
	.st1{display:inline;}
</style>
<g id="vertical-lr" class="st0">
	<g class="st1">
		<g>
			<g>
				<rect x="3" y="2" width="1" height="10.9"/>
			</g>
		</g>
		<g>
			<g>
				<g>
					<polygon points="5.2,10.9 3.5,12.6 1.8,10.9 1.8,12.3 3.5,14 5.2,12.3 					"/>
				</g>
			</g>
		</g>
	</g>
	<g class="st1">
		<path d="M8.8672,4.2061L8.207,4.2183c-0.2012,0-0.3555-0.0278-0.4629-0.084C7.6367,4.0786,7.582,4.0063,7.582,3.9185
			c0-0.1519,0.1309-0.2681,0.3906-0.3481s0.5215-0.1201,0.7852-0.1201h1.2129c0.0645,0,0.0957-0.02,0.0957-0.0601
			c0-0.0796-0.0762-0.2397-0.2285-0.48c-0.0957-0.168-0.1445-0.312-0.1445-0.4316c0-0.1201,0.0605-0.1802,0.1816-0.1802
			c0.1191,0,0.3008,0.124,0.5449,0.3721s0.4219,0.4438,0.5352,0.5879c0.1113,0.144,0.168,0.2822,0.168,0.4141
			s-0.0527,0.2441-0.1562,0.3359c-0.1055,0.0923-0.2598,0.1421-0.4688,0.1499L9.8496,4.1943v1.0801
			c-0.3027,0-0.5742,0.0239-0.8086,0.0718C8.8047,5.394,8.6855,5.4321,8.6855,5.4604c0,0.0278,0.1816,0.084,0.541,0.168
			s0.7031,0.1841,1.0312,0.2998c0.3281,0.1162,0.7891,0.2983,1.3809,0.5459c0.3516,0.144,0.6016,0.2163,0.75,0.2163
			s0.3066-0.0161,0.4805-0.0483c0.1719-0.0317,0.2852-0.0479,0.3418-0.0479c0.0547,0,0.1133,0.0239,0.1738,0.0723
			c0.0586,0.0479,0.0898,0.106,0.0898,0.1738s-0.0293,0.1362-0.084,0.2041c-0.0566,0.0679-0.1973,0.1616-0.4199,0.2817
			l-0.6973,0.3843c-0.2383,0.1279-0.3984,0.1919-0.4785,0.1919s-0.1973-0.0601-0.3477-0.1802
			c-0.625-0.4639-1.2637-0.8101-1.9141-1.0381c-0.6523-0.228-1.2207-0.3579-1.7051-0.3896
			C7.3438,6.2622,7.1025,6.1743,7.1025,6.0303c0-0.0718,0.0557-0.186,0.168-0.3418c0.1123-0.1562,0.3096-0.3301,0.5947-0.522
			c0.2832-0.1924,0.6172-0.3364,1.002-0.4321V4.2061z"/>
	</g>
	<g class="st1">
		<g>
			<g>
				<rect x="8" y="12" width="4.4" height="1"/>
			</g>
		</g>
		<g>
			<g>
				<g>
					<polygon points="10.4,10.8 12.1,12.5 10.4,14.2 11.8,14.2 13.5,12.5 11.8,10.8 					"/>
				</g>
			</g>
		</g>
	</g>
</g>
<g id="vertical-rl">
	<g>
		<g>
			<g>
				<rect x="12" y="2" width="1" height="10.9"/>
			</g>
		</g>
		<g>
			<g>
				<g>
					<polygon points="14.2,10.9 12.5,12.6 10.8,10.9 10.8,12.3 12.5,14 14.2,12.3 					"/>
				</g>
			</g>
		</g>
	</g>
	<g>
		<g>
			<g>
				<rect x="3.6" y="12" width="4.4" height="1"/>
			</g>
		</g>
		<g>
			<g>
				<g>
					<polygon points="5.6,14.2 3.9,12.5 5.6,10.8 4.2,10.8 2.5,12.5 4.2,14.2 					"/>
				</g>
			</g>
		</g>
	</g>
	<g>
		<path d="M7.2578,4.5938c-0.042,0.084-0.084,0.186-0.126,0.2998c0.2578,0.084,0.4258,0.1738,0.6055,0.3359
			c0.3301,0.2939,0.4922,0.6714,0.4922,1.1274c0,0.7256-0.4019,1.3071-1.1274,1.6309C6.7778,8.1318,6.4482,8.21,5.8906,8.2637
			C5.7944,7.9399,5.6929,7.7002,5.5547,7.4722C5.1411,7.8618,4.6191,8.0957,4.1636,8.0957c-0.7075,0-1.1572-0.4736-1.1572-1.2231
			c0-0.5098,0.2095-1.0015,0.5996-1.3911c0.2397-0.2402,0.4614-0.3901,0.8335-0.5459c0-0.2036,0-0.2637,0.0059-0.5215
			C4.1875,4.4077,4.1875,4.4077,3.7437,4.4019C3.6538,4.396,3.5576,4.396,3.4497,4.396c-0.084,0-0.1079,0-0.1919,0.0059
			L3.2461,3.4546c0.3477,0.0659,0.6533,0.0898,1.1152,0.0898h0.0361l0.084-0.0059c0.0059-0.0781,0.0059-0.0781,0.0181-0.2578
			c0.0059-0.0601,0.0059-0.126,0.0059-0.1919c0-0.1201,0-0.168-0.0122-0.252l1.0317,0.042
			C5.4766,3.0586,5.4648,3.1548,5.4287,3.5083c0.9717-0.0537,1.7632-0.1616,2.249-0.2998l0.042,0.9717
			C7.6235,4.186,7.5996,4.186,7.4619,4.2041C6.8862,4.2881,5.9746,4.3599,5.375,4.3838C5.3687,4.4438,5.3687,4.4438,5.3628,4.5459
			c0,0.0361,0,0.0537-0.0059,0.1797c0.2695-0.042,0.3779-0.0537,0.5815-0.0537c0.1138,0,0.1621,0,0.2817,0.0117
			c0.0483-0.1377,0.0659-0.2217,0.0781-0.3418L7.2578,4.5938z M3.9536,6.7886c0,0.2217,0.0898,0.3477,0.2578,0.3477
			c0.1138,0,0.2158-0.0356,0.3301-0.1138C4.4873,6.7168,4.4575,6.3628,4.4512,5.937C4.1274,6.165,3.9536,6.459,3.9536,6.7886z
			 M5.3867,6.3867c0.228-0.2759,0.4497-0.6416,0.564-0.9233c-0.0542-0.0059-0.0723-0.0059-0.126-0.0059
			c-0.1738,0-0.312,0.0176-0.4736,0.0659C5.3511,5.9131,5.3569,6.0869,5.3867,6.3867z M6.6401,7.0884
			C6.9878,6.9268,7.21,6.6147,7.21,6.2847c0-0.2695-0.1143-0.4375-0.3838-0.5757c-0.2759,0.6421-0.606,1.1274-1.0498,1.5654
			C6.1724,7.2441,6.4121,7.1963,6.6401,7.0884z"/>
	</g>
</g>
<g id="horizontal" class="st0">
	<g class="st1">
		<g>
			<g>
				<rect x="3.6" y="12" width="8.7" height="1"/>
			</g>
		</g>
		<g>
			<g>
				<g>
					<polygon points="10.4,10.8 12.1,12.5 10.4,14.2 11.8,14.2 13.5,12.5 11.8,10.8 					"/>
				</g>
			</g>
		</g>
		<g>
			<g>
				<g>
					<polygon points="5.6,10.8 3.9,12.5 5.6,14.2 4.2,14.2 2.5,12.5 4.2,10.8 					"/>
				</g>
			</g>
		</g>
	</g>
	<g class="st1">
		<path d="M4.9585,2.9067h1.1914l1.7822,5.0381H6.7905l-0.332-1.0356H4.603L4.2612,7.9448H3.1602L4.9585,2.9067z M4.8892,6.041
			h1.2905L5.5435,4.0586L4.8892,6.041z"/>
		<path d="M10.6709,5.6787c0.1807-0.0229,0.3105-0.0513,0.3887-0.0854c0.1396-0.0591,0.21-0.1514,0.21-0.2769
			c0-0.1528-0.0537-0.2583-0.1611-0.3159c-0.1074-0.0586-0.2646-0.0874-0.4727-0.0874c-0.2334,0-0.3984,0.0571-0.4961,0.1709
			c-0.0693,0.0845-0.1152,0.1982-0.1377,0.3418H9.0615C9.082,5.1001,9.1738,4.832,9.3359,4.6226
			c0.2588-0.3281,0.7031-0.4922,1.332-0.4922c0.4102,0,0.7734,0.0811,1.0918,0.2427s0.4766,0.4673,0.4766,0.916v1.709
			c0,0.1187,0.0029,0.2622,0.0078,0.4307c0.0059,0.1274,0.0254,0.2144,0.0576,0.2598s0.0801,0.083,0.1436,0.1128v0.1436h-1.0596
			c-0.0293-0.0752-0.0498-0.146-0.0615-0.2119s-0.0205-0.1411-0.0273-0.2256c-0.1348,0.146-0.291,0.27-0.4678,0.3726
			C10.6182,8,10.3799,8.0605,10.1143,8.0605c-0.3389,0-0.6191-0.0957-0.8408-0.2886c-0.2207-0.1924-0.332-0.4653-0.332-0.8184
			c0-0.458,0.1787-0.7896,0.5342-0.9946c0.1953-0.1118,0.4824-0.1914,0.8604-0.2393L10.6709,5.6787z M11.2656,6.1333
			c-0.0615,0.0386-0.125,0.0703-0.1885,0.0938c-0.0635,0.0244-0.1504,0.0464-0.2617,0.0669l-0.2217,0.041
			c-0.208,0.0366-0.3574,0.0811-0.4473,0.1333C9.9932,6.5571,9.916,6.6948,9.916,6.8818c0,0.1665,0.0469,0.2866,0.1406,0.3608
			c0.0938,0.0737,0.208,0.1108,0.3418,0.1108c0.2129,0,0.4092-0.0615,0.5879-0.1846c0.1797-0.123,0.2725-0.3477,0.2793-0.6733
			V6.1333z"/>
	</g>
</g>
</svg>
